<svg width="36" height="36" viewBox="0 0 36 36" fill="none" xmlns="http://www.w3.org/2000/svg">
<path fill-rule="evenodd" clip-rule="evenodd" d="M26.4086 6.17482C26.3562 6.20347 26.2499 6.213 26.2161 6.18109C25.9294 5.91106 25.6537 5.62947 25.3426 5.31934C26.3805 5.04846 27.3687 4.9038 28.3902 5.07191C27.7138 5.44979 27.0631 5.81581 26.4086 6.17482ZM24.2177 5.79043C24.5872 6.14451 24.9465 6.50914 25.3119 6.8734C24.5114 7.47205 23.7272 8.0585 22.9594 8.63275C22.4285 8.10205 21.8975 7.57103 21.3347 7.00864C21.9109 6.71998 22.4941 6.41902 23.0852 6.13569C23.3833 5.99259 23.6936 5.87514 24.0031 5.75996C24.065 5.73681 24.1741 5.7488 24.2177 5.79043ZM26.0225 26.3618C25.9687 26.0913 25.9456 25.8049 25.8539 25.5443C25.5551 24.697 24.9458 24.1753 24.0579 24.0363C23.1494 23.8941 22.363 24.2012 21.7824 24.9433C21.1537 25.747 20.5132 26.535 19.7364 27.2029C17.8581 28.8177 15.7139 29.6009 13.2707 29.4475C13.0947 29.4365 12.9212 29.4014 12.7452 29.3909C12.3564 29.368 12.0662 29.1948 11.8001 28.9134C11.1731 28.2506 10.5148 27.6172 9.8166 26.9195C10.6557 26.1993 11.4531 25.4735 12.2927 24.8017C14.5946 22.959 17.1089 21.5081 19.9131 20.6135C21.1388 20.2225 22.3884 19.9575 23.6619 19.8427C25.9055 19.6406 27.7202 21.449 27.5332 23.6896C27.4547 24.6294 26.7447 25.8802 26.0225 26.3618ZM30.9242 7.61919C31.1012 8.62849 30.9464 9.61748 30.6839 10.6599C30.3695 10.3454 30.0833 10.0648 29.8072 9.77445C29.7802 9.74592 29.7964 9.64946 29.8232 9.6004C30.1828 8.94621 30.5477 8.29467 30.9242 7.61919ZM30.1991 11.7745C30.2428 11.8202 30.2713 11.9291 30.2472 11.984C29.8451 12.8894 29.4333 13.7906 29.0218 14.6971C28.4419 14.1182 27.9095 13.5868 27.3701 13.048C27.9405 12.283 28.5298 11.4933 29.1329 10.685C29.494 11.0513 29.8513 11.4084 30.1991 11.7745ZM30.0928 6.48687C29.8784 7.36281 29.4185 8.13027 28.9734 8.89111C28.3414 8.26291 27.7261 7.65163 27.1037 7.03312C27.8671 6.58607 28.6336 6.12504 29.5085 5.90853C30.0977 5.76312 30.2363 5.90005 30.0928 6.48687ZM28.3135 9.94405C27.7507 10.706 27.1694 11.493 26.5986 12.2659C25.6388 11.3053 24.7022 10.368 23.7398 9.40516C24.5097 8.83539 25.2957 8.25371 26.06 7.68807C26.8198 8.44866 27.5511 9.18078 28.3135 9.94405ZM25.8055 13.2332C25.199 13.9297 24.5611 14.6623 23.9303 15.3871C22.8219 14.2777 21.7373 13.1923 20.6215 12.0757C21.3398 11.4484 22.07 10.8108 22.7726 10.1973C23.7823 11.2081 24.7767 12.2034 25.8055 13.2332ZM22.0324 9.39287C21.3032 10.0301 20.5777 10.6641 19.8787 11.2751C19.2374 10.6346 18.6015 9.99953 17.9317 9.33106C18.7004 8.77882 19.4987 8.20509 20.2804 7.64324C20.8812 8.24307 21.449 8.81028 22.0324 9.39287ZM17.0451 13.9911C17.2966 12.6513 17.4541 11.3809 16.9011 10.1138C17.6159 10.8328 18.2697 11.4908 18.9329 12.1578C18.36 12.7142 17.7303 13.3256 17.0451 13.9911ZM19.6261 19.5661C17.513 20.2284 15.5491 21.2197 13.6914 22.4395C13.6174 22.4883 13.5409 22.5327 13.4657 22.579C13.4557 22.568 13.4457 22.557 13.4358 22.546C13.477 22.4767 13.5157 22.4054 13.5599 22.3381C14.8089 20.4363 15.8123 18.4229 16.4935 16.2588C16.5532 16.0692 16.7181 15.9099 16.8221 15.7543C17.9704 16.9051 19.0928 18.03 20.2264 19.1664C20.09 19.3389 19.8928 19.4825 19.6261 19.5661ZM17.6903 14.892C18.3736 14.226 19.0693 13.548 19.7544 12.8804C20.8808 14.0075 21.9884 15.1161 23.1246 16.2533C22.4641 16.9328 21.7888 17.6275 21.116 18.3197C19.9631 17.1662 18.8382 16.0405 17.6903 14.892ZM28.3357 15.7581C27.8026 16.5028 27.233 17.298 26.6834 18.0658C26.03 17.4108 25.3959 16.775 24.7401 16.1174C25.3378 15.4322 25.9714 14.706 26.5851 14.0026C27.1544 14.5735 27.7253 15.1459 28.3357 15.7581ZM22.0627 18.9168C22.6747 18.2851 23.2839 17.6565 23.8683 17.0536C24.5361 17.7205 25.1901 18.374 25.8063 18.9893C25.2436 18.9062 24.6226 18.7524 23.9944 18.7387C23.3613 18.7248 22.7209 18.8503 22.0627 18.9168ZM9.79421 10.021C9.74494 10.0192 9.69587 10.0169 9.61356 10.0134C10.7441 8.66574 12.406 8.08645 13.962 8.69429C15.4491 9.27533 16.3376 10.876 16.1537 12.5063C15.7105 16.4377 14.0915 19.9013 11.7148 23.0557C10.9447 24.0779 10.0648 25.0187 9.2339 25.9957C9.18548 26.0524 9.12599 26.1002 9.06288 26.1607C8.3022 25.4001 7.54938 24.6506 6.80302 23.8949C6.74472 23.8361 6.71504 23.7362 6.699 23.6495C6.26704 21.3109 6.77227 19.1483 8.12922 17.1538C8.86848 16.067 9.80446 15.1685 10.862 14.3965C11.6485 13.8224 12.0703 13.0811 11.994 12.1093C11.9023 10.9419 10.9687 10.0632 9.79421 10.021ZM11.0113 29.7813C10.6216 30.1723 10.2025 30.5925 9.79621 31C8.21678 29.4198 6.6058 27.8081 5 26.2014C5.40628 25.795 5.82141 25.3799 6.21716 24.984C7.81376 26.5817 9.42395 28.1929 11.0113 29.7813Z" fill="#1A1A1B"/>
</svg>
