<svg width="32" height="28" viewBox="0 0 32 28" fill="none" xmlns="http://www.w3.org/2000/svg">
<path fill-rule="evenodd" clip-rule="evenodd" d="M31.3516 3.69152L13.869 20.5431L7.85806 14.7401C6.99478 13.9066 6.99506 12.5551 7.85893 11.7221C8.72453 10.8869 10.1283 10.8897 10.9902 11.7285L13.8247 14.4864L28.1775 0.625252C29.0434 -0.211106 30.4492 -0.208038 31.3111 0.632224L31.3602 0.680191C32.2166 1.51515 32.2128 2.8613 31.3516 3.69152ZM5.53543 4.34828C4.97119 4.34801 4.51366 4.78975 4.51366 5.3344V22.6491C4.51366 23.1938 4.9709 23.6353 5.53514 23.6353H23.4649C24.0291 23.6353 24.4866 23.1935 24.4863 22.6486L24.4829 14.6746L28.9569 10.0996V25.7344C28.9569 26.9595 27.9294 27.9534 26.66 27.9559L2.30556 28C1.03305 28.0025 0 27.0069 0 25.7784V2.24052C0 1.01317 1.03074 0.0184117 2.30209 0.0189694L24.55 0.026778L19.7558 4.35219L5.53543 4.34828Z" fill="#699194"/>
</svg>
