<?xml version="1.0" standalone="no"?>
<!DOCTYPE svg PUBLIC "-//W3C//DTD SVG 20010904//EN"
 "http://www.w3.org/TR/2001/REC-SVG-20010904/DTD/svg10.dtd">
<svg version="1.0" xmlns="http://www.w3.org/2000/svg"
 width="162.000000pt" height="188.000000pt" viewBox="0 0 162.000000 188.000000"
 preserveAspectRatio="xMidYMid meet">

<g transform="translate(0.000000,188.000000) scale(0.100000,-0.100000)"
fill="#000000" stroke="none">
<path d="M0 940 l0 -940 810 0 810 0 0 940 0 940 -810 0 -810 0 0 -940z m1346
761 c43 -26 60 -77 45 -136 -14 -58 -16 -51 29 -96 41 -41 43 -55 11 -93 -27
-32 -126 -92 -174 -105 l-45 -13 -40 40 c-49 49 -115 67 -212 58 l-68 -6 -12
51 c-17 72 -18 177 -1 217 13 31 55 62 83 62 7 0 31 -14 52 -30 21 -16 44 -27
50 -23 6 4 29 19 52 34 90 61 172 75 230 40z m-328 -441 c204 -57 286 -146
328 -355 17 -87 18 -89 80 -151 38 -39 75 -88 95 -129 28 -58 33 -77 33 -144
0 -66 -4 -85 -27 -124 -15 -25 -44 -58 -64 -75 -43 -33 -135 -82 -156 -82 -8
0 -43 -9 -77 -20 -99 -32 -332 -46 -515 -31 -262 21 -406 73 -485 176 -64 85
-85 146 -85 252 1 50 6 102 12 115 6 12 21 52 33 87 81 235 286 408 565 477
113 28 171 29 263 4z"/>
<path d="M895 1093 c-19 -37 -22 -38 -85 -43 -77 -6 -120 -29 -155 -82 -27
-41 -33 -103 -14 -141 6 -12 38 -47 71 -78 l61 -57 -13 -75 c-17 -99 -22 -107
-57 -85 -18 10 -33 32 -42 60 -26 80 -30 88 -51 88 -27 0 -70 -43 -70 -70 0
-60 59 -139 131 -176 47 -23 53 -31 61 -89 5 -33 41 -25 52 12 8 27 15 32 53
38 94 14 146 51 172 121 11 29 19 59 17 66 -3 7 -7 25 -10 41 -8 33 -65 99
-113 128 -35 22 -35 23 -30 75 6 62 26 108 47 112 25 5 58 -34 65 -78 8 -47
36 -67 80 -56 79 20 29 152 -78 207 -37 19 -38 21 -35 67 3 41 0 47 -17 50
-14 2 -26 -8 -40 -35z m-66 -137 c8 -10 6 -28 -8 -72 -10 -32 -22 -59 -28 -61
-14 -5 -40 28 -48 59 -6 22 -1 33 23 58 34 33 44 36 61 16z m62 -350 l22 -43
-22 -32 c-28 -39 -77 -44 -83 -8 -3 19 16 109 28 129 9 15 33 -5 55 -46z"/>
</g>
</svg>
