<svg width="36" height="36" viewBox="0 0 36 36" fill="none" xmlns="http://www.w3.org/2000/svg">
<path fill-rule="evenodd" clip-rule="evenodd" d="M25.614 19.204C25.7623 18.2571 25.9105 17.3103 26.0563 16.3629C26.1836 15.5364 26.307 14.7093 26.4304 13.8822C26.5127 13.3308 26.595 12.7794 26.6785 12.2282C26.7573 11.7069 26.8387 11.1859 26.9202 10.6649C26.9549 10.4425 26.9897 10.2202 27.0242 9.99782C27.0322 9.55582 26.891 9.18762 26.569 8.88552C26.0543 8.40276 25.48 8.32895 24.8379 8.60241C23.2211 9.29066 21.6032 9.97653 19.9853 10.6624C19.9836 10.6631 19.9818 10.6639 19.98 10.6646C19.7408 10.766 19.5016 10.8675 19.2624 10.9689C18.5448 11.2731 17.8272 11.5774 17.1097 11.882C13.3916 13.4606 9.67382 15.0397 5.95685 16.6207C5.85752 16.663 5.75783 16.7046 5.65812 16.7463C5.26783 16.9095 4.87717 17.0728 4.50602 17.2717C4.0298 17.527 4.03617 18.1439 4.49688 18.4259C4.65562 18.5231 4.83708 18.5881 5.01466 18.6481C5.50571 18.8134 5.99742 18.9765 6.4891 19.1396C6.53042 19.1533 6.57223 19.1672 6.61356 19.1809C7.23347 19.3865 7.85324 19.5925 8.47149 19.8029C9.58988 20.1834 10.6434 20.0893 11.6374 19.4289C12.2598 19.0153 12.8842 18.6048 13.5086 18.1942C14.0289 17.852 14.5493 17.5099 15.0685 17.166C15.8316 16.6605 16.5942 16.1543 17.3568 15.648C17.4657 15.5757 17.5747 15.5033 17.6836 15.431C17.6843 15.4306 17.6849 15.4302 17.6856 15.4297C18.6684 14.7772 19.6511 14.1247 20.6347 13.4735C20.74 13.4039 20.858 13.3306 20.9779 13.3135C21.071 13.3003 21.2057 13.3469 21.2652 13.4157C21.3012 13.4576 21.2572 13.6154 21.2015 13.6809C21.0303 13.8828 20.8408 14.0703 20.6502 14.2545C19.9209 14.9585 19.191 15.6618 18.4612 16.3652C17.1061 17.671 15.7511 18.9768 14.3998 20.2864C13.7074 20.9573 13.7604 21.8749 14.5219 22.464C14.7636 22.651 15.0217 22.8168 15.2799 22.9826C15.3897 23.0531 15.4994 23.1236 15.6079 23.1957C16.0564 23.4937 16.5048 23.792 16.9532 24.0902C18.5155 25.1294 20.0778 26.1687 21.6461 27.1988C21.8833 27.3544 22.1667 27.4819 22.4443 27.5268C23.5136 27.7005 24.4525 26.9338 24.6168 25.797C24.7905 24.5955 24.965 23.3937 25.149 22.1938C25.2829 21.3215 25.4191 20.4496 25.5555 19.5778C25.575 19.4532 25.5946 19.3285 25.614 19.204Z" fill="#1A1A1B"/>
</svg>
