<svg width="36" height="36" viewBox="0 0 36 36" fill="none" xmlns="http://www.w3.org/2000/svg">
<path d="M28.6191 10.3253C27.2441 10.0369 25.999 9.32553 25.0653 8.29481C24.1316 7.26408 23.5582 5.96792 23.4285 4.59527V4H18.6854V22.4548C18.6825 23.2718 18.4185 24.0674 17.9306 24.7297C17.4427 25.3921 16.7554 25.8879 15.9652 26.1475C15.175 26.4071 14.3218 26.4175 13.5253 26.1771C12.7288 25.9368 12.0292 25.4578 11.5247 24.8075C11.0123 24.1464 10.7281 23.3424 10.7133 22.5122C10.6984 21.682 10.9537 20.8687 11.442 20.1903C11.9304 19.5119 12.6264 19.0037 13.4293 18.7393C14.2321 18.4749 15.1 18.4681 15.907 18.7198V13.9954C14.1074 13.7515 12.2749 14.0652 10.666 14.8926C9.05715 15.72 7.75229 17.0198 6.93397 18.6101C6.11565 20.2003 5.8248 22.0016 6.10211 23.762C6.37942 25.5223 7.21101 27.1536 8.48056 28.4278C9.69126 29.6423 11.2436 30.4755 12.9396 30.8212C14.6355 31.1668 16.398 31.0091 18.0021 30.3683C19.6062 29.7275 20.9791 28.6325 21.9456 27.2233C22.9121 25.814 23.4284 24.1544 23.4285 22.4561V13.0263C25.3454 14.3698 27.6437 15.0902 30 15.0861V10.4657C29.536 10.4662 29.0731 10.4192 28.6191 10.3253Z" fill="#1A1A1B"/>
</svg>
