<svg width="32" height="32" viewBox="0 0 32 32" fill="none" xmlns="http://www.w3.org/2000/svg">
<g clip-path="url(#clip0_1667_10340)">
<path d="M16 32C24.8366 32 32 24.8366 32 16C32 7.16343 24.8366 0 16 0C7.16343 0 0 7.16343 0 16C0 24.8366 7.16343 32 16 32Z" fill="#0788CA"/>
<path d="M21.463 8.93018H10.5363C8.5273 8.93018 7.25393 11.0973 8.26467 12.8493L15.0082 24.5377C15.4483 25.3009 16.5511 25.3009 16.9911 24.5377L23.736 12.8493C24.7454 11.1001 23.472 8.93018 21.4644 8.93018H21.463ZM15.0027 21.0325L13.5341 18.1902L9.99044 11.8523C9.75667 11.4466 10.0454 10.9268 10.535 10.9268H15.0014V21.0339L15.0027 21.0325ZM22.0062 11.8509L18.4639 18.1915L16.9952 21.0325V10.9254H21.4616C21.9512 10.9254 22.2399 11.4453 22.0062 11.8509Z" fill="white"/>
</g>
<defs>
<clipPath id="clip0_1667_10340">
<rect width="32" height="32" fill="white"/>
</clipPath>
</defs>
</svg>
