<svg width="52" height="52" viewBox="0 0 52 52" fill="none" xmlns="http://www.w3.org/2000/svg">
<g clip-path="url(#clip0_2023_161)">
<path d="M26 52C40.3594 52 52 40.3594 52 26C52 11.6406 40.3594 0 26 0C11.6406 0 0 11.6406 0 26C0 40.3594 11.6406 52 26 52Z" fill="#0098EA"/>
<path d="M34.8778 14.5112H17.1219C13.8572 14.5112 11.788 18.0328 13.4305 20.8797L24.3887 39.8735C25.1038 41.1137 26.8959 41.1137 27.611 39.8735L38.5715 20.8797C40.2117 18.0374 38.1425 14.5112 34.88 14.5112H34.8778ZM24.3798 34.1775L21.9933 29.5587L16.2349 19.2597C15.855 18.6005 16.3242 17.7558 17.1197 17.7558H24.3776V34.1798L24.3798 34.1775ZM35.7604 19.2574L30.0042 29.561L27.6177 34.1775V17.7535H34.8756C35.6711 17.7535 36.1403 18.5982 35.7604 19.2574Z" fill="white"/>
</g>
<defs>
<clipPath id="clip0_2023_161">
<rect width="52" height="52" fill="white"/>
</clipPath>
</defs>
</svg>
