<svg width="36" height="36" viewBox="0 0 36 36" fill="none" xmlns="http://www.w3.org/2000/svg">
<path fill-rule="evenodd" clip-rule="evenodd" d="M30.0014 6.20332C29.2903 5.29373 28.2585 5.03849 27.2024 5.0241C24.0637 4.98136 20.9237 5.00849 17.7846 5.00849V5.01589C15.153 5.01589 12.5214 5.01178 9.88979 5.01876C9.24782 5.02041 8.58694 4.96574 7.96841 5.09603C5.32898 5.65173 4.32593 8.4368 5.46305 10.5585C5.80069 11.1882 6.16301 11.8051 6.52203 12.4233C7.33919 13.8306 8.17034 15.2297 8.97927 16.642C9.88074 18.2166 10.76 19.8044 11.6557 21.3823C12.639 23.1135 13.6301 24.8406 14.618 26.5689C15.3336 27.8209 16.0438 29.0757 16.7668 30.3228C17.2854 31.2163 18.6598 31.2295 19.1788 30.3396C20.4755 28.1164 21.7574 25.8842 23.0466 23.6568L23.118 23.5336L23.1214 23.5277C24.0012 22.0081 24.8808 20.4889 25.765 18.972C27.2756 16.3806 28.8062 13.8014 30.2966 11.1988C31.289 9.46517 31.2672 7.82273 30.0014 6.20332ZM19.831 23.6157C20.3632 22.6889 20.8991 21.7645 21.4407 20.8426C21.7631 20.2936 22.0876 19.7459 22.4122 19.1982C22.8594 18.4434 23.3066 17.6886 23.7482 16.9305C24.1308 16.2737 24.5081 15.6138 24.8853 14.9539C25.2388 14.3355 25.5922 13.7172 25.9501 13.1015C26.322 12.462 26.699 11.8256 27.076 11.1892C27.381 10.6744 27.6859 10.1596 27.9883 9.64314C28.3995 8.94071 28.2395 7.75327 27.037 7.77629C25.8977 7.79807 24.7581 7.79176 23.6184 7.78545C23.3388 7.7839 23.0593 7.78236 22.7797 7.78122C21.775 7.77711 20.7703 7.7619 19.7656 7.74505C19.5374 7.74135 19.3828 7.77958 19.3931 8.06277C19.4023 8.31674 19.3997 8.57129 19.3971 8.82589C19.3959 8.945 19.3947 9.06413 19.3947 9.18321L19.3949 11.4967V11.5038C19.3951 13.8162 19.3952 16.1286 19.3968 18.441C19.398 20.2491 19.4017 22.0576 19.4066 23.8656C19.4069 23.9532 19.4161 24.0406 19.4254 24.128C19.4297 24.169 19.4341 24.2101 19.4375 24.2512C19.4626 24.2557 19.4876 24.2606 19.5127 24.2656C19.5456 24.1977 19.5774 24.1293 19.6091 24.0608C19.6789 23.91 19.7488 23.7593 19.831 23.6157ZM16.5023 24.1542L16.6015 24.1246C16.6053 24.0974 16.6104 24.07 16.6156 24.0427C16.6265 23.985 16.6374 23.9272 16.636 23.8697C16.6291 23.5784 16.6196 23.2871 16.6101 22.9959C16.6094 22.9764 16.6088 22.9567 16.6081 22.9373C16.5893 22.3658 16.5704 21.7944 16.5694 21.2228C16.5627 17.2762 16.5654 13.3292 16.5682 9.38253L16.5686 8.90906C16.5686 8.78441 16.576 8.65961 16.5835 8.53492C16.5935 8.36892 16.6034 8.20311 16.5957 8.03811C16.592 7.95549 16.4703 7.81821 16.3917 7.8104C15.9805 7.76848 15.5659 7.743 15.1526 7.74423C14.8167 7.74541 14.4807 7.75538 14.1448 7.76535C13.7767 7.77628 13.4085 7.78721 13.0404 7.78657C12.5037 7.78573 11.9669 7.77928 11.4302 7.77283C10.6514 7.76347 9.87263 7.75412 9.09401 7.7619C8.77529 7.76519 8.42079 7.83918 8.14772 7.99536C7.70151 8.25102 7.67107 8.77219 8.00666 9.3509C8.32916 9.90679 8.65438 10.4611 8.97961 11.0154C9.35777 11.6599 9.73593 12.3044 10.1098 12.9514C10.6549 13.8945 11.1915 14.8427 11.7281 15.7909L11.9572 16.1956C12.0825 16.4169 12.2047 16.6401 12.3268 16.8632C12.4587 17.1042 12.5906 17.3452 12.7266 17.584C13.5327 18.9996 14.3412 20.4135 15.1522 21.8262C15.4457 22.3374 15.7422 22.8469 16.0386 23.3564C16.1934 23.6222 16.3481 23.8881 16.5023 24.1542Z" fill="#1A1A1B"/>
</svg>
